# xmcd
#
# Track frame offsets:
#	150
#	24850
#	55630
#	81355
#
# Disc length: 1404 seconds
#
# Revision: 1
# Processed by: cddbd v1.5.2PL0 Copyright (c) Steve Scherf et al.
# Submitted via: audiograbber 1.83.01
#
DISCID=22057a04
DTITLE=Bob Dylan - Love Sick CD1 [CD-Single)
DYEAR=1998
DGENRE=Rock
TTITLE0=Love Sick (live "Grammy" version)
TTITLE1=Cold Iron's Bound (live version)
TTITLE2=Cocaine Blues (live version)
TTITLE3=Born In Time (live version)
EXTD=
EXTT0=
EXTT1=
EXTT2=
EXTT3=
PLAYORDER=
